<?xml version="1.0" encoding="UTF-8" standalone="no"?>
<!DOCTYPE svg PUBLIC "-//W3C//DTD SVG 20010904//EN"
              "http://www.w3.org/TR/2001/REC-SVG-20010904/DTD/svg10.dtd">

<svg xmlns="http://www.w3.org/2000/svg"
     width="1.3in" height="1.3in"
     viewBox="0 0 390 390">
  <path id="cultura-viva-3"
        fill="currentColor"
        d="M 177.00,58.65
           C 179.55,58.12 181.35,57.83 184.00,58.11
             190.11,58.76 193.17,63.38 194.47,69.00
             196.70,78.63 194.02,88.78 188.94,97.00
             177.96,114.72 160.37,125.79 153.43,142.00
             150.25,149.44 146.80,160.28 157.00,164.11
             161.21,165.68 176.66,161.92 184.00,162.00
             199.95,162.19 204.83,172.59 205.00,187.00
             205.07,193.69 206.28,211.32 195.00,208.68
             193.41,208.31 192.36,207.72 191.09,206.69
             183.34,200.33 181.73,175.97 164.00,182.93
             161.84,183.78 159.82,184.95 158.00,186.39
             155.70,188.21 153.49,190.61 151.79,193.00
             143.34,204.83 145.06,223.11 145.00,237.00
             144.97,243.17 143.88,251.28 138.79,255.49
             134.39,259.13 125.46,259.20 123.43,251.99
             121.75,246.02 124.00,236.93 125.20,231.00
             127.48,219.76 129.15,210.55 129.00,199.00
             128.80,184.61 115.13,184.87 104.00,185.00
             87.11,185.20 67.96,194.80 51.00,195.00
             42.87,195.09 31.87,195.43 25.04,190.35
             16.26,183.83 17.34,170.91 28.00,166.48
             41.54,160.86 56.15,166.50 70.00,165.96
             82.96,165.46 95.71,163.10 108.00,159.00
             115.04,156.65 121.52,154.47 126.82,148.91
             131.38,144.12 136.67,132.34 139.42,126.00
             139.42,126.00 153.66,91.00 153.66,91.00
             158.23,77.82 162.92,64.43 177.00,58.65 Z
           M 224.00,66.53
           C 233.26,65.02 238.25,67.58 240.84,77.00
             241.60,79.77 242.04,82.11 241.69,85.00
             240.58,94.01 234.00,102.40 225.00,104.47
             211.63,107.56 208.88,97.88 209.00,87.00
             209.13,76.32 213.56,69.65 224.00,66.53 Z
           M 300.00,68.52
           C 306.48,67.49 314.26,67.43 320.00,70.99
             330.79,77.69 333.73,93.67 323.82,102.32
             317.12,108.15 310.22,107.99 302.00,108.00
             302.00,108.00 273.00,110.13 273.00,110.13
             267.20,110.94 253.57,111.90 252.37,119.02
             251.77,122.58 254.30,125.21 257.02,127.03
             257.02,127.03 277.00,136.88 277.00,136.88
             288.98,143.87 292.45,155.91 292.96,169.00
             293.28,177.23 290.32,195.09 287.64,203.00
             286.11,207.53 283.69,213.25 278.00,213.18
             271.78,213.09 269.31,207.33 269.04,202.00
             268.34,188.08 273.30,178.54 264.52,164.00
             260.50,157.33 243.89,142.06 236.73,152.11
             233.19,157.09 234.07,168.88 234.00,175.00
             233.94,180.07 232.91,188.76 229.35,192.58
             224.52,197.79 213.19,197.17 213.09,182.00
             213.09,182.00 213.09,172.00 213.09,172.00
             213.09,172.00 215.83,148.00 215.83,148.00
             215.48,144.14 214.36,138.25 210.79,136.10
             206.47,133.49 202.93,137.20 200.00,140.02
             192.46,147.26 187.14,156.11 176.00,157.70
             171.29,158.37 165.73,157.76 163.44,152.95
             157.75,140.94 177.66,124.83 186.00,119.04
             192.37,114.61 201.42,110.37 209.00,108.66
             215.68,107.16 221.73,107.49 228.00,104.69
             228.00,104.69 246.00,95.31 246.00,95.31
             246.00,95.31 278.00,78.75 278.00,78.75
             286.37,74.54 290.58,71.05 300.00,68.52 Z
           M 102.00,114.65
           C 109.78,113.04 119.21,114.79 123.64,122.04
             126.50,126.73 127.00,130.65 127.00,136.00
             127.00,146.59 123.80,153.47 112.00,152.96
             106.41,152.72 100.49,150.34 96.99,145.82
             90.20,137.04 91.04,119.37 102.00,114.65 Z
           M 245.00,173.02
           C 257.77,168.87 259.89,186.03 260.00,195.00
             260.19,211.42 258.56,226.13 248.79,240.00
             245.15,245.16 237.45,251.90 236.43,258.00
             234.86,267.41 247.45,272.00 254.00,278.09
             263.35,286.79 267.85,298.31 268.00,311.00
             268.15,324.36 265.86,338.07 255.96,347.96
             252.76,351.15 243.97,357.40 240.17,351.69
             237.49,347.64 240.68,339.24 241.98,335.00
             245.66,322.97 243.78,308.04 233.96,299.21
             230.05,295.70 223.30,292.35 218.00,294.18
             211.36,296.48 204.98,305.97 201.78,312.00
             192.82,328.92 190.30,353.98 176.00,365.66
             164.69,374.90 153.43,368.15 154.04,354.00
             154.64,340.19 172.03,322.06 180.95,312.00
             185.15,307.26 191.18,300.32 192.46,294.00
             193.84,287.16 187.81,280.67 182.99,276.62
             182.99,276.62 168.00,264.96 168.00,264.96
             156.83,254.20 152.83,242.21 153.00,227.00
             153.09,219.77 155.12,211.53 160.33,206.21
             162.38,204.11 165.87,201.82 168.96,202.70
             173.92,204.13 174.58,211.70 175.39,216.00
             176.75,223.29 179.55,243.51 182.44,249.00
             186.42,256.56 193.31,258.86 201.00,255.35
             219.14,247.07 228.12,220.00 232.63,202.00
             235.14,191.95 235.78,179.32 245.00,173.02 Z
           M 200.00,215.48
           C 223.80,214.13 216.63,247.82 198.00,250.49
             187.87,251.95 182.55,241.82 183.33,233.00
             184.25,222.53 189.96,217.26 200.00,215.48 Z">
  </path>
</svg>
