<?xml version="1.0" encoding="UTF-8" standalone="no"?>
<!DOCTYPE svg PUBLIC "-//W3C//DTD SVG 20010904//EN"
              "http://www.w3.org/TR/2001/REC-SVG-20010904/DTD/svg10.dtd">

<svg xmlns="http://www.w3.org/2000/svg"
     width="0.666667in" height="0.666667in"
     viewBox="0 0 200 200">
  <path id="cultura-viva-1"
        fill="currentColor"
        d="M 134.00,2.02
           C 146.77,-2.13 148.89,15.03 149.00,24.00
             149.19,40.42 147.56,55.13 137.79,69.00
             134.15,74.16 126.45,80.90 125.43,87.00
             123.86,96.41 136.45,101.00 143.00,107.09
             152.35,115.79 156.85,127.31 157.00,140.00
             157.15,153.36 154.86,167.07 144.96,176.96
             141.76,180.15 132.97,186.40 129.17,180.69
             126.49,176.64 129.68,168.24 130.98,164.00
             134.66,151.97 132.78,137.04 122.96,128.21
             119.05,124.70 112.30,121.35 107.00,123.18
             100.36,125.48 93.98,134.97 90.78,141.00
             81.82,157.92 79.30,182.98 65.00,194.66
             53.69,203.90 42.43,197.15 43.04,183.00
             43.64,169.19 61.03,151.06 69.95,141.00
             74.15,136.26 80.18,129.32 81.46,123.00
             82.84,116.16 76.81,109.67 71.99,105.62
             71.99,105.62 57.00,93.96 57.00,93.96
             45.83,83.20 41.83,71.21 42.00,56.00
             42.09,48.77 44.12,40.53 49.33,35.21
             51.38,33.11 54.87,30.82 57.96,31.70
             62.92,33.13 63.58,40.70 64.39,45.00
             65.75,52.29 68.55,72.51 71.44,78.00
             75.42,85.56 82.31,87.86 90.00,84.35
             108.14,76.07 117.12,49.00 121.63,31.00
             124.14,20.95 124.78,8.32 134.00,2.02 Z
           M 89.00,44.48
           C 112.80,43.13 105.63,76.82 87.00,79.49
             76.87,80.95 71.55,70.82 72.33,62.00
             73.25,51.53 78.96,46.26 89.00,44.48 Z">
	</path>
</svg>
